<?xml version="1.0" encoding="UTF-8"?>
<svg id="Layer_2" data-name="Layer 2" xmlns="http://www.w3.org/2000/svg" viewBox="0 0 335.56 260.13">
  <defs>
    <style>
      .cls-1 {
        fill: #ddd3cc;
      }

      .cls-2 {
        fill: #0c050e;
      }

      .cls-3 {
        fill: #b84731;
      }

      .cls-4 {
        fill: #363039;
      }

      .cls-5 {
        fill: #fff;
      }

      .cls-6 {
        fill: #221d25;
      }

      .cls-7 {
        fill: #db1925;
      }

      .cls-8 {
        fill: #110b13;
      }

      .cls-9 {
        fill: #29242c;
      }
    </style>
  </defs>
  <g id="Modo_de_aislamiento" data-name="Modo de aislamiento">
    <g>
      <g>
        <path class="cls-9" d="M335.56,163.89c0,10.68-4.88,19.35-10.9,19.35h0c-6.02,0-10.89-8.66-10.89-19.35v-52.65c0-10.68,4.88-19.35,10.89-19.35h0c6.02,0,10.9,8.66,10.9,19.35v52.65Z"/>
        <path class="cls-9" d="M21.79,163.89c0,10.68-4.88,19.35-10.9,19.35h0c-6.02,0-10.89-8.66-10.89-19.35v-52.65c0-10.68,4.88-19.35,10.89-19.35h0c6.02,0,10.9,8.66,10.9,19.35v52.65Z"/>
      </g>
      <g>
        <g>
          <path class="cls-4" d="M322.91,227.87c0,17.82-13.3,32.26-29.69,32.26H42.34c-16.4,0-29.69-14.44-29.69-32.26V43.23c0-17.82,13.29-32.25,29.69-32.25h250.88c16.4,0,29.69,14.44,29.69,32.25v184.64Z"/>
          <path class="cls-2" d="M304.92,220.56c0,14.35-11.75,25.98-26.25,25.98H56.89c-14.5,0-26.25-11.63-26.25-25.98V71.82c0-14.34,11.75-25.98,26.25-25.98h221.78c14.5,0,26.25,11.63,26.25,25.98v148.74Z"/>
          <path class="cls-5" d="M297.56,216.58c0,13.58-11.13,24.58-24.84,24.58H62.84c-13.72,0-24.84-11-24.84-24.58V75.82c0-13.58,11.12-24.58,24.84-24.58h209.88c13.71,0,24.84,11,24.84,24.58v140.76Z"/>
          <g>
            <path class="cls-5" d="M58.79,21.29c-4.74,0-8.6,3.86-8.6,8.61s3.86,8.6,8.6,8.6,8.6-3.86,8.6-8.6-3.86-8.61-8.6-8.61ZM50.84,30.26h2.52c.03,1.17.21,2.28.51,3.29h-2.15c-.52-.99-.83-2.1-.88-3.29ZM59.17,25.31v-3.36c1.41.19,2.64,1.48,3.42,3.36h-3.42ZM62.85,26.06c.33,1.03.53,2.21.57,3.46h-4.26v-3.46h3.69ZM58.42,21.95v3.36h-3.42c.77-1.88,2.01-3.17,3.42-3.36ZM58.42,26.06v3.46h-4.25c.03-1.25.24-2.42.57-3.46h3.69ZM53.36,29.52h-2.52c.06-1.25.4-2.42.98-3.46h2.11c-.33,1.05-.53,2.22-.56,3.46ZM54.16,30.26h4.25v3.29h-3.74c-.3-.99-.48-2.1-.51-3.29ZM58.42,34.29v3.54c-1.45-.2-2.72-1.56-3.48-3.54h3.48ZM59.17,37.83v-3.54h3.49c-.77,1.98-2.03,3.33-3.49,3.54ZM59.17,33.55v-3.29h4.26c-.03,1.18-.22,2.29-.52,3.29h-3.74ZM64.23,30.26h2.52c-.05,1.18-.37,2.29-.89,3.29h-2.15c.3-1,.48-2.11.51-3.29ZM64.23,29.52c-.04-1.24-.23-2.41-.57-3.46h2.11c.57,1.03.92,2.21.98,3.46h-2.52ZM65.31,25.31h-1.91c-.49-1.22-1.16-2.23-1.96-2.94,1.57.56,2.92,1.59,3.87,2.94ZM56.14,22.38c-.79.71-1.47,1.72-1.95,2.94h-1.91c.94-1.34,2.29-2.38,3.86-2.94ZM52.16,34.29h1.96c.49,1.3,1.19,2.37,2.02,3.11-1.64-.58-3.04-1.68-3.98-3.11ZM61.44,37.4c.83-.74,1.53-1.81,2.02-3.11h1.96c-.95,1.42-2.34,2.53-3.98,3.11Z"/>
            <g>
              <path class="cls-5" d="M78.83,26.86l-1.2,1.19c-.76-.81-1.65-1.21-2.67-1.21-.88,0-1.62.29-2.22.88-.6.59-.9,1.3-.9,2.14s.31,1.6.93,2.21c.62.6,1.38.9,2.29.9.59,0,1.09-.12,1.5-.37.41-.25.73-.64.98-1.17h-2.6v-1.61h4.52v.38c.01.79-.19,1.53-.6,2.24-.41.71-.93,1.24-1.58,1.61-.65.37-1.41.56-2.28.56-.93,0-1.77-.2-2.5-.61-.73-.41-1.31-.98-1.74-1.74-.43-.75-.64-1.56-.64-2.42,0-1.19.39-2.23,1.18-3.11.93-1.05,2.15-1.57,3.64-1.57.78,0,1.52.15,2.2.44.57.25,1.13.66,1.68,1.26Z"/>
              <path class="cls-5" d="M81.04,25.4h1.82c.98,0,1.69.09,2.13.27.43.18.77.48,1.03.88.25.41.37.89.37,1.45,0,.63-.16,1.15-.49,1.57-.33.42-.77.71-1.33.87-.33.09-.93.14-1.8.14v3.81h-1.71v-8.99ZM82.75,28.91h.54c.43,0,.73-.03.89-.09.17-.06.3-.16.4-.3.1-.14.14-.31.14-.51,0-.35-.13-.6-.4-.76-.2-.12-.55-.18-1.09-.18h-.48v1.85Z"/>
              <path class="cls-5" d="M92.78,26.62l-1.27,1.12c-.45-.62-.9-.93-1.36-.93-.23,0-.41.06-.55.18-.14.12-.22.25-.22.41s.05.29.16.43c.14.18.55.57,1.25,1.16.65.55,1.05.89,1.19,1.03.35.35.6.69.74,1,.14.32.22.67.22,1.05,0,.74-.26,1.34-.76,1.82-.51.48-1.18.72-1.99.72-.64,0-1.2-.16-1.67-.47-.47-.31-.88-.81-1.22-1.48l1.44-.87c.43.79.93,1.19,1.49,1.19.29,0,.54-.08.74-.26.2-.17.3-.37.3-.59,0-.2-.08-.41-.23-.61-.15-.2-.49-.52-1-.93-.98-.8-1.61-1.42-1.9-1.85-.29-.43-.43-.87-.43-1.3,0-.62.24-1.16.71-1.6.47-.45,1.06-.67,1.76-.67.45,0,.88.11,1.28.31.41.21.85.59,1.32,1.14Z"/>
            </g>
          </g>
          <path class="cls-1" d="M39.88,117.45c-.56-1.61-1.18-3.22-1.88-4.83v6.33c.62-.49,1.23-.98,1.88-1.5Z"/>
          <g>
            <path class="cls-3" d="M178.37,12.61c0,6.97-12.61,32.14-12.61,32.14,0,0-12.61-25.17-12.61-32.14s5.65-12.61,12.61-12.61,12.61,5.65,12.61,12.61Z"/>
            <path class="cls-5" d="M173.93,13.11c0,4.52-3.66,8.18-8.18,8.18s-8.18-3.66-8.18-8.18,3.66-8.18,8.18-8.18,8.18,3.66,8.18,8.18Z"/>
          </g>
        </g>
        <g>
          <path class="cls-8" d="M274.62,28.96c0,6.66-5.4,12.06-12.06,12.06s-12.06-5.4-12.06-12.06,5.4-12.07,12.06-12.07,12.06,5.4,12.06,12.07Z"/>
          <path class="cls-6" d="M270.66,28.96c0,4.47-3.62,8.1-8.1,8.1s-8.1-3.63-8.1-8.1,3.62-8.1,8.1-8.1,8.1,3.63,8.1,8.1Z"/>
          <path class="cls-7" d="M266.69,28.96c0,2.28-1.85,4.13-4.13,4.13s-4.12-1.85-4.12-4.13,1.85-4.13,4.12-4.13,4.13,1.85,4.13,4.13Z"/>
          <path class="cls-5" d="M261.29,24.98c-.42-.41-1.59.09-2.63,1.12-1.04,1.04-1.54,2.21-1.12,2.63.41.42,1.59-.09,2.63-1.12,1.04-1.03,1.54-2.21,1.12-2.63Z"/>
        </g>
      </g>
    </g>
  </g>
</svg>